<svg height="379pt" viewBox="0 -8 379.98748 379" width="379pt" xmlns="http://www.w3.org/2000/svg"><path d="m269.800781.492188 49.160157 51.402343-.421876.398438h-48.738281zm0 0" fill="#2561a1"/><path d="m117.941406 253.785156 16.597656-49.921875c4.046876-17.078125 19.296876-29.140625 36.851563-29.140625h170.71875c11.332031 0 22.066406 5.070313 29.261719 13.824219 7.195312 8.753906 10.09375 20.269531 7.898437 31.386719l-32.378906 113.929687c-3.507813 17.746094-19.074219 30.53125-37.160156 30.53125h-262.46875c17.484375.003907 33.542969-9.652343 41.738281-25.101562h.011719c1.882812-3.558594 3.304687-7.34375 4.238281-11.257813l9.761719-29.363281zm0 0" fill="#e48e66"/><path d="m321.328125 52.273438v122.449218h-149.9375c-17.554687 0-32.804687 12.0625-36.851563 29.140625l-16.597656 49.921875v-233.601562c.003906-10.871094 8.816406-19.683594 19.6875-19.691406h134.171875v51.800781h48.738281l.421876-.398438zm0 0" fill="#6fe3ff"/><path d="m117.941406 35.574219v218.210937l-14.929687 44.886719h-3.960938c-10.875.003906-19.695312-8.8125-19.691406-19.6875v-223.71875c0-8.328125 5.238281-15.753906 13.082031-18.542969 2.117188-.765625 4.355469-1.15625 6.609375-1.148437zm0 0" fill="#2561a1"/><path d="m103.011719 298.671875-9.761719 29.363281c-.933594 3.914063-2.355469 7.699219-4.238281 11.257813h-27.992188c-10.871093-.003907-19.683593-8.816407-19.691406-19.6875v-223.722657c0-10.875 8.816406-19.691406 19.691406-19.6875h18.339844v202.789063c-.003906 10.875 8.816406 19.691406 19.691406 19.6875zm0 0" fill="#6fe3ff"/><path d="m92.390625 36.574219.050781.148437c-7.84375 2.789063-13.082031 10.214844-13.082031 18.542969v20.929687h-18.339844c-10.875-.003906-19.691406 8.8125-19.691406 19.6875v223.722657c.007813 10.871093 8.820313 19.683593 19.691406 19.6875h27.980469c-10.175781 19.171875-32.101562 28.949219-53.160156 23.703125-21.0625-5.242188-35.84375025-24.15625-35.839844-45.863282v-240.359374c0-22.203126 18-40.199219 40.199219-40.199219zm0 0" fill="#f8ec7d"/></svg>