<svg height="438pt" viewBox="0 -37 438.44 438" width="438pt" xmlns="http://www.w3.org/2000/svg"><path d="m438.441406 231.78125-58.441406 38.1875-47.148438 30.8125v-41.402344h-124.410156v-55.199218h124.410156v-41.398438l47.148438 30.808594zm0 0" fill="#af593c"/><path d="m380 269.96875v50.921875c0 23.449219-19.011719 42.453125-42.460938 42.449219h-290.609374c23.449218.003906 42.460937-19 42.460937-42.449219v-178.21875c-.003906-23.449219 19.003906-42.457031 42.449219-42.453125h205.699218c23.449219-.003906 42.460938 19.003906 42.460938 42.453125v50.917969l-47.148438-30.808594v41.398438h-124.410156v55.199218h124.410156v41.402344zm0 0" fill="#e48e66"/><path d="m327.929688 91.570312v8.648438h-196.089844c-23.445313-.003906-42.453125 19.003906-42.449219 42.453125v178.21875c0 23.449219-19.011719 42.453125-42.460937 42.449219h-4.46875c-23.449219.003906-42.460938-19-42.460938-42.449219v-278.21875c0-23.449219 19.011719-42.457031 42.460938-42.453125h95.25c11.921874 0 23.292968 5.011719 31.339843 13.8125l28.910157 31.628906c2.011718 2.203125 4.855468 3.457032 7.839843 3.460938h79.667969c23.449219-.007813 42.460938 19 42.460938 42.449218zm0 0" fill="#f8ec7d"/></svg>