<svg id="Capa_1" enable-background="new 0 0 512 512" height="512" viewBox="0 0 512 512" width="512" xmlns="http://www.w3.org/2000/svg"><g><path d="m161 31v95h95l33-51-33-44z" fill="#ffb100"/><path d="m256 31h227v95h-227z" fill="#ff9100"/><path d="m207.792 91-40-91h-167.792v469h256l43.5-201-43.5-177z" fill="#ffcd00"/><path d="m256 91h256v378h-256z" fill="#ffb100"/><path d="m270 398c0 62.859 51.141 114 114 114l12-116-12-112c-62.859 0-114 51.141-114 114z" fill="#fbfafa"/><path d="m384 284v228c62.859 0 114-51.141 114-114s-51.141-114-114-114z" fill="#dfdce0"/><path d="m369 353v30h-30v30h30v30h15l8-46-8-44z" fill="#29cc95"/><path d="m399 383v-30h-15v90h15v-30h30v-30z" fill="#1f9999"/></g></svg>