<svg height="432pt" viewBox="0 -4 432 431" width="432pt" xmlns="http://www.w3.org/2000/svg"><path d="m339.679688 273.363281v-86.164062c0-3.863281-3.132813-7-7-7-3.867188 0-7 3.136719-7 7v86.164062c-14.949219 2.957031-26.421876 15.195313-27.660157 30.167969h-87.558593c-3.867188 0-7 3.132812-7 7 0 3.863281 3.132812 7 7 7h89.460937c4.835937 13.167969 17.726563 22.199219 32.757813 22.199219 19.175781 0 34.78125-15.039063 34.78125-33.519531 0-16.179688-11.945313-29.71875-27.78125-32.847657zm0 0" fill="#2561a1"/><path d="m129.367188 115.28125h86.171874c3.867188 0 7-3.136719 7-7 0-3.867188-3.132812-7-7-7h-86.171874c-3.128907-15.835938-16.667969-27.78125-32.835938-27.78125-18.488281 0-33.53125 15.601562-33.53125 34.78125 0 15.03125 9.03125 27.917969 22.210938 32.753906v95.464844c0 3.867188 3.132812 7 7 7 3.863281 0 7-3.132812 7-7v-93.5625c14.96875-1.238281 27.199218-12.707031 30.15625-27.65625zm0 0" fill="#2561a1"/><path d="m432 88.441406v70c.003906 14.476563-11.730469 26.214844-26.210938 26.207032h-159.390624c14.476562 0 26.210937-11.734376 26.210937-26.207032v-70c-.003906-14.480468 11.734375-26.21875 26.210937-26.210937h106.96875c14.480469-.007813 26.214844 11.730469 26.210938 26.210937zm0 0" fill="#e48e66"/><path d="m399.859375 56.890625v5.339844h-101.039063c-14.476562-.007813-26.214843 11.730469-26.210937 26.210937v70c0 14.472656-11.734375 26.207032-26.210937 26.207032h-2.757813c-14.476563 0-26.210937-11.734376-26.210937-26.207032v-131.730468c0-14.476563 11.734374-26.210938 26.210937-26.210938h58.800781c7.359375-.003906 14.378906 3.09375 19.339844 8.53125l17.847656 19.519531c1.242188 1.359375 3 2.136719 4.839844 2.140625h29.179688c14.476562-.007812 26.210937 11.726563 26.210937 26.199219zm0 0" fill="#f8ec7d"/><path d="m214.570312 326.28125v70.007812c0 14.476563-11.734374 26.210938-26.210937 26.210938h-159.390625c14.476562 0 26.210938-11.734375 26.210938-26.210938v-70.007812c0-14.472656 11.730468-26.203125 26.199218-26.203125h106.980469c14.472656-.003906 26.210937 11.726563 26.210937 26.203125zm0 0" fill="#e48e66"/><path d="m182.429688 294.738281v5.339844h-101.050782c-14.46875 0-26.199218 11.730469-26.199218 26.203125v70.007812c0 14.476563-11.734376 26.210938-26.210938 26.210938h-2.757812c-14.480469.003906-26.21484425-11.730469-26.210938-26.210938v-131.730468c-.00390625-14.476563 11.730469-26.214844 26.210938-26.207032h58.800781c1.824219-.003906 3.644531.1875 5.429687.570313 5.351563 1.128906 10.21875 3.910156 13.910156 7.949219l17.847657 19.527344c1.238281 1.359374 2.992187 2.132812 4.832031 2.132812h29.1875c14.476562.003906 26.207031 11.734375 26.210938 26.207031zm0 0" fill="#f8ec7d"/></svg>