<svg id="Layer_1" enable-background="new 0 0 256 256" height="512" viewBox="0 0 256 256" width="512" xmlns="http://www.w3.org/2000/svg"><g><g><g><path d="m174.935 109.832 49.618-49.618c6.093-6.093 2.141-16.526-6.46-17.052l-52.854-3.236c-5.995-.367-10.959 4.597-10.592 10.592l3.236 52.854c.526 8.601 10.959 12.553 17.052 6.46z" fill="#ffa91a"/></g></g><g><g><g><path d="m162.97 90.35c-1.05 0-1.93-.82-1.99-1.88-.07-1.1.77-2.05 1.87-2.12 1.11-.06 2.05.78 2.12 1.88.03.53-.14 1.05-.5 1.45-.35.4-.84.64-1.37.67-.04 0-.08 0-.13 0zm-.49-7.98c-1.05 0-1.93-.83-1.99-1.88l-1.85-30.22c-.01-.11-.01-.24-.01-.38 0-2.08 1.02-3.46 1.63-4.09 1.12-1.2 2.7-1.89 4.33-1.89h.03c.12 0 .24 0 .38.01l38.01 2.33c1.1.06 1.94 1.01 1.87 2.11-.06 1.1-1.01 1.96-2.11 1.88l-38.01-2.33c-.06 0-.11 0-.14 0-.57 0-1.05.21-1.45.63-.25.27-.55.72-.54 1.35v.12.02l1.85 30.21c.07 1.1-.77 2.05-1.87 2.12-.04.01-.08.01-.13.01z" fill="#ffc91d"/></g></g></g><g><g><path d="m218.093 43.161-.596-.036c.021 2.492-.892 5.037-2.944 7.089l-49.618 49.618c-2.052 2.052-4.596 2.965-7.089 2.944l.036.596c.527 8.601 10.959 12.553 17.052 6.46l49.618-49.618c6.094-6.093 2.142-16.526-6.459-17.053z" fill="#f79219"/></g></g><g><g><path d="m189.009 95.758c6.076 11.458 8.833 24.525 7.742 38.005-1.212 14.972-7.393 29.215-17.455 40.367-10.629 11.78-24.545 19.335-39.755 21.881-1.607.269-3.081 1.06-4.233 2.213l-20.59 20.59c-1.175 1.175-.49 3.198 1.159 3.407 6.566.833 13.289.994 20.088.438 20.766-1.697 40.484-10.303 55.887-24.334 20.032-18.248 31.132-43.433 31.132-70.325 0-18.447-5.229-36.088-14.977-51.241z" fill="#ffa91a"/></g></g><g><g><path d="m208.008 76.759-3.009 3.009c5.233 11.892 7.985 24.85 7.985 38.232 0 26.892-11.099 52.077-31.132 70.325-15.403 14.031-35.121 22.636-55.887 24.334-1.8.147-3.595.244-5.383.291l-5.864 5.864c-1.175 1.175-.49 3.198 1.159 3.407 6.566.833 13.289.994 20.088.438 20.766-1.697 40.484-10.303 55.887-24.334 20.032-18.248 31.132-43.433 31.132-70.325.001-18.447-5.229-36.088-14.976-51.241z" fill="#f79219"/></g></g><g><g><path d="m81.065 146.168-49.618 49.618c-6.093 6.093-2.141 16.526 6.46 17.052l52.854 3.236c5.995.367 10.959-4.597 10.592-10.592l-3.236-52.854c-.526-8.601-10.959-12.553-17.052-6.46z" fill="#ffa91a"/></g></g><g><g><path d="m101.353 205.482-3.236-52.854c-.349-5.704-5.056-9.364-9.964-9.404l3.199 52.258c.367 5.995-4.597 10.959-10.592 10.592l-52.258-3.199c.041 4.908 3.7 9.614 9.404 9.964l52.854 3.236c5.996.367 10.96-4.597 10.593-10.593z" fill="#f79219"/></g></g><g><g><path d="m101.353 205.482-3.236-52.854c-.248-4.046-2.687-7.063-5.836-8.49.464 1.05.758 2.219.836 3.49l3.236 52.854c.367 5.995-4.597 10.959-10.592 10.592l-52.854-3.236c-1.271-.078-2.439-.372-3.49-.836 1.427 3.149 4.444 5.588 8.49 5.836l52.854 3.236c5.995.368 10.959-4.596 10.592-10.592z" fill="#ef7816"/></g></g><g><g><path d="m140.123 33.78c-6.566-.833-13.289-.994-20.088-.438-20.766 1.697-40.484 10.303-55.887 24.334-20.033 18.247-31.133 43.432-31.132 70.324 0 18.447 5.229 36.088 14.977 51.241l18.999-18.999c-6.076-11.458-8.833-24.525-7.742-38.005 1.212-14.972 7.393-29.215 17.455-40.367 10.629-11.78 24.545-19.335 39.755-21.881 1.607-.269 3.081-1.06 4.233-2.213l20.59-20.59c1.174-1.175.489-3.197-1.16-3.406z" fill="#ffa91a"/></g></g><g><g><path d="m140.123 33.78c-4.828-.612-9.74-.861-14.705-.729l-14.726 14.726c-1.152 1.152-2.626 1.944-4.233 2.213-15.209 2.545-29.126 10.1-39.755 21.88-10.062 11.152-16.243 25.395-17.455 40.367-1.091 13.48 1.666 26.547 7.742 38.005l-15.99 15.99c1.98 4.5 4.315 8.849 6.991 13.009l18.999-18.999c-6.076-11.458-8.833-24.525-7.742-38.005 1.212-14.972 7.393-29.215 17.455-40.367 10.629-11.78 24.545-19.335 39.755-21.881 1.607-.269 3.081-1.06 4.233-2.213l20.59-20.59c1.175-1.175.49-3.197-1.159-3.406z" fill="#f79219"/></g></g></g></svg>